<svg width="1055" height="167" viewBox="0 0 1055 167" fill="none" xmlns="http://www.w3.org/2000/svg">
<path d="M66.5009 0.109319C77.4282 -0.523162 89.0923 1.52388 98.1674 7.95183C99.7937 8.76076 102.532 12.0314 103.957 12.6238C108.743 14.6142 113.013 14.8976 116.476 19.4797C120.58 24.9099 119.813 32.1221 115.451 37.2233C114.15 38.7448 113.062 39.6206 111.461 40.8016C111.821 35.9106 110.71 32.3181 105.021 31.8877C96.8248 31.268 86.8459 36.4233 86.1558 45.4212C85.7872 50.2305 87.7673 54.9617 90.9676 58.5448C100.012 68.318 114.853 72.4598 127.709 73.4541C125.792 74.6722 121.941 75.8051 119.589 76.7546C116.202 78.0473 112.791 79.4525 109.37 80.636C107.559 81.263 103.797 79.5812 101.975 78.9815C88.7292 74.6351 71.6127 62.7437 73.7381 46.8771C74.6255 40.254 79.537 35.9289 84.5964 32.2798C80.5829 32.5346 78.85 32.925 74.8842 33.8563C77.0906 31.3042 81.0572 29.1493 84.2477 28.1716C85.9632 27.6457 87.922 27.2672 89.5066 26.4106C90.1983 26.0364 90.6322 25.5756 91.0541 24.9159C92.3187 22.937 95.6622 14.1859 96.353 11.7015C93.5661 10.9715 90.9753 9.78108 88.1236 9.00753C77.839 6.21762 66.7728 5.98364 56.7375 9.89957C49.037 12.9043 38.9885 19.7367 35.5922 27.4364C38.2354 26.6518 40.5927 25.969 43.2837 25.3796C40.0353 29.137 38.1438 33.2255 37.0016 38.0318C35.3599 45.7946 37.1529 53.7598 40.8655 60.5432C48.7007 74.8597 63.5524 84.5413 79.153 88.4214C81.2264 88.9371 83.3821 89.6216 85.4411 90.2451C82.7948 91.5161 80.0467 92.7951 77.3548 93.9978C61.083 101.265 45.1654 109.748 30.549 119.976C25.9929 123.164 21.9466 126.764 17.6595 130.241C12.8029 124.325 7.57306 114.483 5.02269 107.239C7.81344 105.587 12.8161 103.757 15.9227 102.641C22.3383 100.337 28.9354 98.1098 35.5308 96.4024C39.1743 95.4593 42.9534 94.8656 46.5578 93.7204C38.4413 89.8138 21.5396 87.2191 12.1786 86.6084C9.72707 86.4485 3.62988 86.8539 0.40663 86.8053C0.0330252 80.1029 -0.269404 73.5905 0.379056 66.8932C2.85718 41.2973 19.3297 16.7712 42.8507 5.95423C50.5709 2.40356 57.9778 0.65315 66.5009 0.109319Z" fill="white"/>
<path d="M182.961 40.9375C183.156 41.2282 183.234 42.4445 183.262 42.8669C183.731 49.7373 182.964 56.5872 180.435 63.0151C170.429 88.4503 140.856 94.4593 117.653 102.11C106.877 105.663 96.7699 108.901 86.5799 114.021C80.0885 117.283 73.5642 120.83 67.5907 124.956C65.4307 126.443 63.4518 128.146 61.3929 129.764C54.829 134.922 49.21 141.323 43.3813 147.285C42.3491 148.341 41.2486 149.986 40.2624 151.169L35.2137 147.329C33.6598 146.172 32.1851 145.059 30.6738 143.849C32.1131 141.468 34.7308 138.319 36.5724 136.226C40.3788 131.898 44.3786 127.479 48.7003 123.66C51.214 121.438 53.8743 118.733 56.4648 116.647C65.9988 108.971 77.0966 102.136 88.0626 96.693C116.897 82.3816 150.018 74.6056 173.731 51.5708C177.051 48.3461 180.02 44.5103 182.961 40.9375Z" fill="white"/>
<path d="M178.26 84.5781L178.388 84.7469C177.426 97.57 167.755 111.869 156.988 118.609C145.466 125.822 131.105 129.099 118.043 132.465C100.999 136.857 83.8205 141.767 69.955 153.149C67.0023 155.586 63.8817 159.001 61.2725 161.807C58.934 160.759 56.5264 159.865 54.0647 158.738C52.8031 158.129 51.7074 157.529 50.4863 156.852C55.0658 149.877 62.6978 142.529 69.2927 137.435C80.7617 128.579 94.4001 122.025 108.069 117.31C117.381 114.084 127.498 111.456 136.777 108.299C150.596 103.597 164.651 98.6547 174.984 87.9093C176.047 86.8037 177.131 85.6432 178.26 84.5781Z" fill="white"/>
<path d="M160.692 128.367L160.9 128.471C160.514 129.538 159.243 131.224 158.568 132.218C154.523 138.171 148.629 143.903 142.86 148.216C127.346 159.817 106.504 166.991 87.063 166.557C83.0244 166.466 78.6652 165.823 74.6504 165.234C74.2801 165.205 73.3642 165.012 72.958 164.939C73.9033 163.778 75.1926 162.599 76.3753 161.68C98.971 144.128 129.586 145.346 154.233 132.151C156.44 130.969 158.462 129.522 160.692 128.367Z" fill="white"/>
<path d="M75.0584 12.7383C79.5246 13.0818 84.8401 13.6951 89.2875 14.2538C89.0032 16.1189 88.4905 16.9969 87.191 18.3087C83.2346 21.434 78.6534 20.5603 76.1418 16.1581C75.6875 15.362 75.0312 13.6495 75.0584 12.7383Z" fill="white"/>
<path d="M198.874 90L231.566 17.3513H244.85L277.646 90H263.531L235.406 24.5124H240.802L212.781 90H198.874ZM213.922 73.187L217.555 62.6011H256.785L260.417 73.187H213.922ZM280.45 90V34.5794H292.8V49.3167L290.621 44.9578C292.489 41.36 295.187 38.627 298.716 36.7589C302.314 34.8908 306.396 33.9567 310.963 33.9567C316.152 33.9567 320.649 35.2367 324.454 37.7967C328.329 40.3567 330.889 44.2313 332.134 49.4205L327.049 47.6562C328.848 43.5049 331.823 40.1838 335.974 37.693C340.126 35.2022 344.934 33.9567 350.4 33.9567C354.829 33.9567 358.738 34.8216 362.128 36.5513C365.587 38.2811 368.286 40.9449 370.223 44.5427C372.16 48.0713 373.129 52.6378 373.129 58.2422V90H360.156V59.9027C360.156 54.9903 359.084 51.3232 356.939 48.9016C354.794 46.48 351.715 45.2692 347.702 45.2692C344.865 45.2692 342.34 45.8919 340.126 47.1373C337.981 48.3827 336.286 50.2162 335.04 52.6378C333.864 55.0595 333.276 58.1384 333.276 61.8746V90H320.303V59.9027C320.303 54.9903 319.231 51.3232 317.086 48.9016C314.941 46.48 311.862 45.2692 307.849 45.2692C305.012 45.2692 302.487 45.8919 300.273 47.1373C298.128 48.3827 296.433 50.2162 295.187 52.6378C294.011 55.0595 293.423 58.1384 293.423 61.8746V90H280.45ZM410.669 90.7265C404.511 90.7265 399.114 89.5157 394.479 87.0941C389.912 84.6032 386.349 81.213 383.789 76.9232C381.298 72.6335 380.053 67.7557 380.053 62.2897C380.053 56.7546 381.263 51.8768 383.685 47.6562C386.176 43.3665 389.566 40.0108 393.856 37.5892C398.215 35.1676 403.162 33.9567 408.697 33.9567C414.094 33.9567 418.902 35.133 423.123 37.4854C427.343 39.8378 430.665 43.1589 433.086 47.4486C435.508 51.7384 436.719 56.7892 436.719 62.6011C436.719 63.1546 436.684 63.7773 436.615 64.4692C436.615 65.1611 436.58 65.8184 436.511 66.4411H390.327V57.827H429.661L424.576 60.5254C424.645 57.3427 423.988 54.5405 422.604 52.1189C421.22 49.6973 419.317 47.7946 416.896 46.4108C414.543 45.027 411.81 44.3351 408.697 44.3351C405.514 44.3351 402.712 45.027 400.29 46.4108C397.938 47.7946 396.07 49.7319 394.686 52.2227C393.372 54.6443 392.714 57.5157 392.714 60.8368V62.9124C392.714 66.2335 393.475 69.174 394.997 71.7341C396.52 74.2941 398.665 76.2659 401.432 77.6497C404.2 79.0335 407.382 79.7254 410.98 79.7254C414.094 79.7254 416.896 79.2411 419.387 78.2724C421.877 77.3038 424.092 75.7816 426.029 73.7059L432.982 81.6973C430.492 84.6032 427.343 86.8519 423.538 88.4432C419.802 89.9654 415.512 90.7265 410.669 90.7265ZM443.991 90V34.5794H456.341V49.8357L454.888 45.373C456.549 41.6367 459.143 38.8 462.672 36.8627C466.27 34.9254 470.732 33.9567 476.06 33.9567V46.307C475.506 46.1686 474.987 46.0995 474.503 46.0995C474.019 46.0303 473.535 45.9957 473.05 45.9957C468.138 45.9957 464.229 47.4486 461.323 50.3546C458.417 53.1913 456.964 57.4465 456.964 63.12V90H443.991ZM481.876 90V34.5794H494.849V90H481.876ZM488.414 25.4465C485.993 25.4465 483.986 24.6854 482.395 23.1632C480.873 21.6411 480.112 19.8076 480.112 17.6627C480.112 15.4486 480.873 13.6151 482.395 12.1621C483.986 10.64 485.993 9.87891 488.414 9.87891C490.836 9.87891 492.808 10.6054 494.33 12.0584C495.921 13.4421 496.717 15.2065 496.717 17.3513C496.717 19.6346 495.956 21.5719 494.434 23.1632C492.912 24.6854 490.905 25.4465 488.414 25.4465ZM532.114 90.7265C526.302 90.7265 521.113 89.5157 516.546 87.0941C512.049 84.6032 508.52 81.213 505.96 76.9232C503.4 72.6335 502.12 67.7557 502.12 62.2897C502.12 56.7546 503.4 51.8768 505.96 47.6562C508.52 43.3665 512.049 40.0108 516.546 37.5892C521.113 35.1676 526.302 33.9567 532.114 33.9567C537.51 33.9567 542.25 35.0638 546.332 37.2778C550.483 39.4227 553.632 42.6054 555.776 46.8259L545.813 52.6378C544.153 50.0086 542.112 48.0713 539.69 46.8259C537.337 45.5805 534.777 44.9578 532.01 44.9578C528.827 44.9578 525.956 45.6497 523.396 47.0335C520.836 48.4173 518.829 50.4238 517.376 53.053C515.923 55.613 515.197 58.6919 515.197 62.2897C515.197 65.8876 515.923 69.0011 517.376 71.6303C518.829 74.1903 520.836 76.1622 523.396 77.5459C525.956 78.9297 528.827 79.6216 532.01 79.6216C534.777 79.6216 537.337 78.9989 539.69 77.7535C542.112 76.5081 544.153 74.5708 545.813 71.9416L555.776 77.7535C553.632 81.9049 550.483 85.1222 546.332 87.4054C542.25 89.6195 537.51 90.7265 532.114 90.7265ZM595.946 90V78.7913L595.22 76.4043V56.7892C595.22 52.9838 594.078 50.0432 591.795 47.9676C589.512 45.8227 586.052 44.7503 581.417 44.7503C578.303 44.7503 575.224 45.2346 572.18 46.2032C569.205 47.1719 566.679 48.5211 564.604 50.2508L559.518 40.8065C562.493 38.5232 566.022 36.8281 570.104 35.7211C574.256 34.5449 578.545 33.9567 582.973 33.9567C590.999 33.9567 597.192 35.894 601.551 39.7686C605.979 43.574 608.193 49.4897 608.193 57.5157V90H595.946ZM578.511 90.7265C574.359 90.7265 570.727 90.0346 567.613 88.6508C564.5 87.1978 562.078 85.2259 560.349 82.7351C558.688 80.1751 557.858 77.3038 557.858 74.1211C557.858 71.0076 558.584 68.2054 560.037 65.7146C561.559 63.2238 564.016 61.2519 567.406 59.7989C570.796 58.3459 575.293 57.6195 580.898 57.6195H596.984V66.2335H581.832C577.404 66.2335 574.429 66.96 572.906 68.413C571.384 69.7968 570.623 71.5265 570.623 73.6022C570.623 75.9546 571.557 77.8227 573.425 79.2065C575.293 80.5903 577.888 81.2822 581.209 81.2822C584.392 81.2822 587.229 80.5557 589.719 79.1027C592.279 77.6497 594.113 75.5049 595.22 72.6681L597.399 80.4519C596.154 83.7038 593.905 86.2292 590.653 88.0281C587.471 89.827 583.423 90.7265 578.511 90.7265ZM619.653 90V34.5794H632.003V49.5243L629.824 44.9578C631.761 41.4292 634.563 38.7308 638.23 36.8627C641.966 34.9254 646.256 33.9567 651.099 33.9567C655.528 33.9567 659.471 34.8216 662.931 36.5513C666.459 38.2811 669.227 40.9449 671.233 44.5427C673.24 48.0713 674.243 52.6378 674.243 58.2422V90H661.27V59.9027C661.27 54.9903 660.094 51.3232 657.742 48.9016C655.458 46.48 652.241 45.2692 648.09 45.2692C645.045 45.2692 642.347 45.8919 639.995 47.1373C637.642 48.3827 635.809 50.2508 634.494 52.7416C633.249 55.1632 632.626 58.2422 632.626 61.9784V90H619.653ZM727.374 90L703.296 17.3513H717.307L738.79 83.0465H731.837L754.15 17.3513H766.604L788.295 83.0465H781.549L803.551 17.3513H816.421L792.343 90H778.02L758.198 30.7394H761.934L741.8 90H727.374ZM842.872 90.7265C836.714 90.7265 831.317 89.5157 826.681 87.0941C822.115 84.6032 818.552 81.213 815.992 76.9232C813.501 72.6335 812.255 67.7557 812.255 62.2897C812.255 56.7546 813.466 51.8768 815.888 47.6562C818.379 43.3665 821.769 40.0108 826.059 37.5892C830.418 35.1676 835.365 33.9567 840.9 33.9567C846.296 33.9567 851.105 35.133 855.326 37.4854C859.546 39.8378 862.867 43.1589 865.289 47.4486C867.711 51.7384 868.921 56.7892 868.921 62.6011C868.921 63.1546 868.887 63.7773 868.818 64.4692C868.818 65.1611 868.783 65.8184 868.714 66.4411H822.53V57.827H861.864L856.779 60.5254C856.848 57.3427 856.191 54.5405 854.807 52.1189C853.423 49.6973 851.52 47.7946 849.099 46.4108C846.746 45.027 844.013 44.3351 840.9 44.3351C837.717 44.3351 834.915 45.027 832.493 46.4108C830.141 47.7946 828.273 49.7319 826.889 52.2227C825.574 54.6443 824.917 57.5157 824.917 60.8368V62.9124C824.917 66.2335 825.678 69.174 827.2 71.7341C828.722 74.2941 830.867 76.2659 833.635 77.6497C836.402 79.0335 839.585 79.7254 843.183 79.7254C846.296 79.7254 849.099 79.2411 851.589 78.2724C854.08 77.3038 856.294 75.7816 858.232 73.7059L865.185 81.6973C862.694 84.6032 859.546 86.8519 855.741 88.4432C852.005 89.9654 847.715 90.7265 842.872 90.7265ZM908.818 90V78.7913L908.092 76.4043V56.7892C908.092 52.9838 906.95 50.0432 904.667 47.9676C902.384 45.8227 898.924 44.7503 894.288 44.7503C891.175 44.7503 888.096 45.2346 885.052 46.2032C882.076 47.1719 879.551 48.5211 877.475 50.2508L872.39 40.8065C875.365 38.5232 878.894 36.8281 882.976 35.7211C887.127 34.5449 891.417 33.9567 895.845 33.9567C903.871 33.9567 910.064 35.894 914.422 39.7686C918.851 43.574 921.065 49.4897 921.065 57.5157V90H908.818ZM891.382 90.7265C887.231 90.7265 883.599 90.0346 880.485 88.6508C877.372 87.1978 874.95 85.2259 873.22 82.7351C871.56 80.1751 870.729 77.3038 870.729 74.1211C870.729 71.0076 871.456 68.2054 872.909 65.7146C874.431 63.2238 876.887 61.2519 880.278 59.7989C883.668 58.3459 888.165 57.6195 893.769 57.6195H909.856V66.2335H894.704C890.275 66.2335 887.3 66.96 885.778 68.413C884.256 69.7968 883.495 71.5265 883.495 73.6022C883.495 75.9546 884.429 77.8227 886.297 79.2065C888.165 80.5903 890.76 81.2822 894.081 81.2822C897.264 81.2822 900.1 80.5557 902.591 79.1027C905.151 77.6497 906.985 75.5049 908.092 72.6681L910.271 80.4519C909.026 83.7038 906.777 86.2292 903.525 88.0281C900.342 89.827 896.295 90.7265 891.382 90.7265ZM932.525 90V12.9924H945.498V90H932.525ZM978.196 90.7265C972.107 90.7265 967.402 89.1697 964.081 86.0562C960.76 82.8735 959.1 78.2032 959.1 72.0454V22.333H972.073V71.7341C972.073 74.3632 972.73 76.4043 974.045 77.8573C975.428 79.3103 977.331 80.0368 979.753 80.0368C982.659 80.0368 985.08 79.2757 987.018 77.7535L990.65 86.9903C989.128 88.2357 987.26 89.1697 985.046 89.7924C982.832 90.4151 980.548 90.7265 978.196 90.7265ZM949.967 44.9578V34.5794H986.914V44.9578H949.967ZM996.133 90V12.9924H1009.11V49.5243L1006.3 44.9578C1008.24 41.4292 1011.04 38.7308 1014.71 36.8627C1018.45 34.9254 1022.74 33.9567 1027.58 33.9567C1032.01 33.9567 1035.95 34.8216 1039.41 36.5513C1042.94 38.2811 1045.71 40.9449 1047.71 44.5427C1049.72 48.0713 1050.72 52.6378 1050.72 58.2422V90H1037.75V59.9027C1037.75 54.9903 1036.57 51.3232 1034.22 48.9016C1031.94 46.48 1028.72 45.2692 1024.57 45.2692C1021.53 45.2692 1018.83 45.8919 1016.47 47.1373C1014.12 48.3827 1012.29 50.2508 1010.97 52.7416C1009.73 55.1632 1009.11 58.2422 1009.11 61.9784V90H996.133Z" fill="white"/>
<path d="M203.88 149V119.081H217.301C220.749 119.081 223.399 119.779 225.251 121.175C227.103 122.543 228.029 124.424 228.029 126.817C228.029 128.441 227.659 129.809 226.918 130.92C226.206 132.032 225.237 132.887 224.012 133.485C222.786 134.083 221.461 134.383 220.037 134.383L220.806 133.1C222.516 133.1 224.026 133.399 225.336 133.998C226.647 134.596 227.687 135.48 228.457 136.648C229.226 137.788 229.611 139.212 229.611 140.922C229.611 143.486 228.642 145.481 226.704 146.906C224.795 148.302 221.946 149 218.156 149H203.88ZM208.155 145.538H217.985C220.35 145.538 222.159 145.139 223.413 144.341C224.667 143.543 225.294 142.29 225.294 140.58C225.294 138.842 224.667 137.574 223.413 136.776C222.159 135.978 220.35 135.579 217.985 135.579H207.77V132.117H216.916C219.082 132.117 220.763 131.718 221.96 130.92C223.157 130.123 223.755 128.926 223.755 127.33C223.755 125.735 223.157 124.538 221.96 123.74C220.763 122.942 219.082 122.543 216.916 122.543H208.155V145.538ZM252.898 149.342C248.965 149.342 245.874 148.216 243.623 145.965C241.372 143.714 240.246 140.423 240.246 136.092V119.081H244.52V135.921C244.52 139.255 245.247 141.691 246.7 143.23C248.182 144.769 250.262 145.538 252.94 145.538C255.647 145.538 257.727 144.769 259.18 143.23C260.662 141.691 261.403 139.255 261.403 135.921V119.081H265.549V136.092C265.549 140.423 264.423 143.714 262.172 145.965C259.95 148.216 256.858 149.342 252.898 149.342ZM278.586 149V119.081H282.86V149H278.586ZM296.091 149V119.081H300.365V145.282H316.564V149H296.091ZM325.743 149V119.081H338.352C341.543 119.081 344.35 119.708 346.772 120.962C349.222 122.216 351.117 123.968 352.456 126.219C353.824 128.47 354.508 131.077 354.508 134.041C354.508 137.004 353.824 139.611 352.456 141.862C351.117 144.113 349.222 145.866 346.772 147.119C344.35 148.373 341.543 149 338.352 149H325.743ZM330.017 145.282H338.095C340.574 145.282 342.711 144.811 344.506 143.871C346.33 142.931 347.74 141.62 348.738 139.939C349.735 138.229 350.234 136.263 350.234 134.041C350.234 131.79 349.735 129.823 348.738 128.142C347.74 126.461 346.33 125.15 344.506 124.21C342.711 123.27 340.574 122.8 338.095 122.8H330.017V145.282ZM365.329 149V119.081H369.603V149H365.329ZM382.834 149V119.081H386.339L406.128 143.657H404.29V119.081H408.564V149H405.06L385.27 124.424H387.108V149H382.834ZM435.3 149.342C432.992 149.342 430.869 148.972 428.931 148.231C426.994 147.461 425.313 146.393 423.888 145.025C422.463 143.629 421.352 142.005 420.554 140.153C419.756 138.3 419.357 136.263 419.357 134.041C419.357 131.818 419.756 129.781 420.554 127.929C421.352 126.076 422.463 124.467 423.888 123.099C425.341 121.703 427.037 120.634 428.974 119.893C430.912 119.124 433.049 118.739 435.385 118.739C437.75 118.739 439.916 119.124 441.882 119.893C443.848 120.663 445.515 121.817 446.883 123.355L444.233 126.005C443.008 124.808 441.668 123.939 440.215 123.398C438.79 122.828 437.238 122.543 435.556 122.543C433.847 122.543 432.251 122.828 430.769 123.398C429.316 123.968 428.048 124.766 426.965 125.792C425.911 126.817 425.085 128.043 424.486 129.467C423.917 130.863 423.632 132.388 423.632 134.041C423.632 135.665 423.917 137.189 424.486 138.614C425.085 140.01 425.911 141.235 426.965 142.29C428.048 143.315 429.316 144.113 430.769 144.683C432.223 145.253 433.804 145.538 435.514 145.538C437.109 145.538 438.634 145.296 440.087 144.811C441.569 144.298 442.936 143.458 444.19 142.29L446.626 145.538C445.145 146.792 443.406 147.746 441.412 148.402C439.446 149.028 437.408 149.342 435.3 149.342ZM446.626 145.538L442.523 144.982V133.87H446.626V145.538ZM481.718 149L471.716 119.081H476.118L485.308 146.692H483.085L492.617 119.081H496.549L505.866 146.692H503.729L513.047 119.081H517.107L507.106 149H502.618L493.899 123.398H495.053L486.291 149H481.718ZM526.61 149V119.081H547.724V122.8H530.884V145.282H548.322V149H526.61ZM530.499 135.622V131.989H545.886V135.622H530.499ZM554.987 149L568.536 119.081H572.767L586.359 149H581.871L569.775 121.475H571.485L559.389 149H554.987ZM560.757 141.52L561.911 138.101H578.751L579.99 141.52H560.757ZM595.096 149V119.081H599.37V145.282H615.569V149H595.096ZM627.433 149V122.8H617.175V119.081H641.922V122.8H631.664V149H627.433ZM672.307 149V119.081H676.582V149H672.307ZM650.851 149V119.081H655.126V149H650.851ZM654.698 135.665V131.946H672.692V135.665H654.698ZM705.563 149V119.081H717.232C721.107 119.081 724.156 120.007 726.378 121.859C728.601 123.683 729.712 126.233 729.712 129.51C729.712 131.676 729.214 133.542 728.216 135.109C727.219 136.648 725.794 137.83 723.942 138.657C722.09 139.483 719.853 139.896 717.232 139.896H707.914L709.838 137.93V149H705.563ZM725.566 149L717.958 138.144H722.532L730.225 149H725.566ZM709.838 138.357L707.914 136.263H717.104C719.839 136.263 721.905 135.679 723.301 134.511C724.726 133.314 725.438 131.647 725.438 129.51C725.438 127.373 724.726 125.72 723.301 124.552C721.905 123.384 719.839 122.8 717.104 122.8H707.914L709.838 120.663V138.357ZM740.892 149V119.081H762.006V122.8H745.166V145.282H762.604V149H740.892ZM744.781 135.622V131.989H760.168V135.622H744.781ZM782.518 149.342C780.239 149.342 778.059 149 775.979 148.316C773.899 147.604 772.26 146.692 771.064 145.581L772.645 142.247C773.785 143.244 775.238 144.071 777.005 144.726C778.771 145.381 780.609 145.709 782.518 145.709C784.257 145.709 785.667 145.509 786.75 145.111C787.833 144.712 788.63 144.17 789.143 143.486C789.656 142.774 789.913 141.976 789.913 141.093C789.913 140.067 789.571 139.241 788.887 138.614C788.231 137.987 787.362 137.488 786.28 137.118C785.225 136.719 784.057 136.377 782.775 136.092C781.493 135.807 780.196 135.48 778.885 135.109C777.603 134.71 776.421 134.212 775.338 133.613C774.284 133.015 773.429 132.217 772.773 131.22C772.118 130.194 771.79 128.883 771.79 127.287C771.79 125.749 772.189 124.338 772.987 123.056C773.813 121.745 775.067 120.705 776.748 119.936C778.458 119.138 780.624 118.739 783.245 118.739C784.983 118.739 786.707 118.967 788.417 119.423C790.126 119.879 791.608 120.534 792.862 121.389L791.451 124.808C790.169 123.954 788.816 123.341 787.391 122.971C785.966 122.572 784.584 122.372 783.245 122.372C781.564 122.372 780.182 122.586 779.099 123.013C778.016 123.441 777.218 124.011 776.706 124.723C776.221 125.435 775.979 126.233 775.979 127.117C775.979 128.171 776.307 129.011 776.962 129.638C777.646 130.265 778.515 130.764 779.569 131.134C780.652 131.505 781.835 131.847 783.117 132.16C784.399 132.445 785.681 132.773 786.963 133.143C788.274 133.513 789.457 133.998 790.511 134.596C791.594 135.195 792.463 135.992 793.118 136.99C793.774 137.987 794.101 139.269 794.101 140.836C794.101 142.347 793.688 143.757 792.862 145.068C792.035 146.35 790.753 147.39 789.015 148.188C787.305 148.957 785.14 149.342 782.518 149.342ZM804.62 149V119.081H816.288C818.909 119.081 821.146 119.494 822.998 120.321C824.85 121.147 826.275 122.344 827.272 123.911C828.27 125.478 828.768 127.344 828.768 129.51C828.768 131.676 828.27 133.542 827.272 135.109C826.275 136.648 824.85 137.845 822.998 138.699C821.146 139.526 818.909 139.939 816.288 139.939H806.97L808.894 137.93V149H804.62ZM808.894 138.357L806.97 136.22H816.16C818.895 136.22 820.961 135.636 822.357 134.468C823.782 133.3 824.494 131.647 824.494 129.51C824.494 127.373 823.782 125.72 822.357 124.552C820.961 123.384 818.895 122.8 816.16 122.8H806.97L808.894 120.663V138.357ZM853.245 149.342C850.966 149.342 848.843 148.957 846.877 148.188C844.939 147.419 843.258 146.35 841.833 144.982C840.409 143.586 839.297 141.962 838.5 140.11C837.702 138.258 837.303 136.235 837.303 134.041C837.303 131.847 837.702 129.823 838.5 127.971C839.297 126.119 840.409 124.509 841.833 123.142C843.258 121.745 844.939 120.663 846.877 119.893C848.814 119.124 850.937 118.739 853.245 118.739C855.525 118.739 857.619 119.124 859.528 119.893C861.466 120.634 863.147 121.703 864.572 123.099C866.025 124.467 867.136 126.076 867.906 127.929C868.703 129.781 869.102 131.818 869.102 134.041C869.102 136.263 868.703 138.3 867.906 140.153C867.136 142.005 866.025 143.629 864.572 145.025C863.147 146.393 861.466 147.461 859.528 148.231C857.619 148.972 855.525 149.342 853.245 149.342ZM853.245 145.538C854.898 145.538 856.422 145.253 857.819 144.683C859.243 144.113 860.469 143.315 861.494 142.29C862.549 141.235 863.361 140.01 863.931 138.614C864.529 137.218 864.828 135.693 864.828 134.041C864.828 132.388 864.529 130.863 863.931 129.467C863.361 128.071 862.549 126.86 861.494 125.834C860.469 124.78 859.243 123.968 857.819 123.398C856.422 122.828 854.898 122.543 853.245 122.543C851.564 122.543 850.011 122.828 848.587 123.398C847.19 123.968 845.965 124.78 844.911 125.834C843.857 126.86 843.03 128.071 842.432 129.467C841.862 130.863 841.577 132.388 841.577 134.041C841.577 135.693 841.862 137.218 842.432 138.614C843.03 140.01 843.857 141.235 844.911 142.29C845.965 143.315 847.19 144.113 848.587 144.683C850.011 145.253 851.564 145.538 853.245 145.538ZM879.909 149V119.081H883.414L903.203 143.657H901.365V119.081H905.639V149H902.135L882.345 124.424H884.183V149H879.909ZM927.588 149.342C925.308 149.342 923.129 149 921.049 148.316C918.968 147.604 917.33 146.692 916.133 145.581L917.715 142.247C918.854 143.244 920.308 144.071 922.074 144.726C923.841 145.381 925.679 145.709 927.588 145.709C929.326 145.709 930.737 145.509 931.819 145.111C932.902 144.712 933.7 144.17 934.213 143.486C934.726 142.774 934.982 141.976 934.982 141.093C934.982 140.067 934.64 139.241 933.956 138.614C933.301 137.987 932.432 137.488 931.349 137.118C930.295 136.719 929.127 136.377 927.844 136.092C926.562 135.807 925.266 135.48 923.955 135.109C922.673 134.71 921.49 134.212 920.407 133.613C919.353 133.015 918.498 132.217 917.843 131.22C917.188 130.194 916.86 128.883 916.86 127.287C916.86 125.749 917.259 124.338 918.057 123.056C918.883 121.745 920.137 120.705 921.818 119.936C923.528 119.138 925.693 118.739 928.315 118.739C930.053 118.739 931.777 118.967 933.486 119.423C935.196 119.879 936.678 120.534 937.931 121.389L936.521 124.808C935.239 123.954 933.885 123.341 932.46 122.971C931.036 122.572 929.654 122.372 928.315 122.372C926.633 122.372 925.251 122.586 924.169 123.013C923.086 123.441 922.288 124.011 921.775 124.723C921.291 125.435 921.049 126.233 921.049 127.117C921.049 128.171 921.376 129.011 922.032 129.638C922.715 130.265 923.585 130.764 924.639 131.134C925.722 131.505 926.904 131.847 928.186 132.16C929.469 132.445 930.751 132.773 932.033 133.143C933.344 133.513 934.526 133.998 935.581 134.596C936.663 135.195 937.532 135.992 938.188 136.99C938.843 137.987 939.171 139.269 939.171 140.836C939.171 142.347 938.758 143.757 937.931 145.068C937.105 146.35 935.823 147.39 934.085 148.188C932.375 148.957 930.209 149.342 927.588 149.342ZM949.689 149V119.081H953.963V149H949.689ZM967.195 149V119.081H980.615C984.063 119.081 986.713 119.779 988.565 121.175C990.417 122.543 991.343 124.424 991.343 126.817C991.343 128.441 990.973 129.809 990.232 130.92C989.52 132.032 988.551 132.887 987.326 133.485C986.101 134.083 984.776 134.383 983.351 134.383L984.12 133.1C985.83 133.1 987.34 133.399 988.651 133.998C989.961 134.596 991.002 135.48 991.771 136.648C992.54 137.788 992.925 139.212 992.925 140.922C992.925 143.486 991.956 145.481 990.018 146.906C988.109 148.302 985.26 149 981.47 149H967.195ZM971.469 145.538H981.299C983.664 145.538 985.474 145.139 986.727 144.341C987.981 143.543 988.608 142.29 988.608 140.58C988.608 138.842 987.981 137.574 986.727 136.776C985.474 135.978 983.664 135.579 981.299 135.579H971.084V132.117H980.231C982.396 132.117 984.077 131.718 985.274 130.92C986.471 130.123 987.069 128.926 987.069 127.33C987.069 125.735 986.471 124.538 985.274 123.74C984.077 122.942 982.396 122.543 980.231 122.543H971.469V145.538ZM1003.82 149V119.081H1008.09V145.282H1024.29V149H1003.82ZM1037.56 149V137.545L1038.54 140.195L1025.68 119.081H1030.25L1041.07 136.904H1038.59L1049.44 119.081H1053.67L1040.85 140.195L1041.79 137.545V149H1037.56Z" fill="white"/>
</svg>
