<svg width="191" height="173" viewBox="0 0 191 173" fill="none" xmlns="http://www.w3.org/2000/svg">
<path d="M69.0662 0.113535C80.415 -0.54334 92.5291 1.58265 101.954 8.25852C103.643 9.09864 106.487 12.4955 107.967 13.1107C112.938 15.1778 117.373 15.4722 120.969 20.231C125.232 25.8706 124.434 33.361 119.904 38.6589C118.553 40.2391 117.423 41.1487 115.761 42.3753C116.134 37.2956 114.981 33.5646 109.072 33.1175C100.56 32.4739 90.196 37.8281 89.4793 47.173C89.0965 52.1678 91.1529 57.0815 94.4767 60.8027C103.87 70.9529 119.283 75.2544 132.636 76.2871C130.645 77.5522 126.645 78.7287 124.202 79.7149C120.685 81.0574 117.142 82.5168 113.589 83.746C111.708 84.3971 107.801 82.6505 105.909 82.0277C92.152 77.5136 74.3752 65.1636 76.5826 48.6851C77.5042 41.8065 82.6051 37.3146 87.8597 33.5247C83.6914 33.7894 81.8916 34.1949 77.7729 35.1621C80.0644 32.5115 84.184 30.2736 87.4976 29.2581C89.2793 28.7119 91.3136 28.3189 92.9594 27.4292C93.6778 27.0405 94.1284 26.562 94.5666 25.8768C95.8799 23.8217 99.3524 14.733 100.07 12.1528C97.1755 11.3946 94.4847 10.1583 91.523 9.35493C80.8417 6.45743 69.3486 6.21442 58.9262 10.2814C50.9286 13.402 40.4925 20.4979 36.9651 28.4946C39.7104 27.6797 42.1586 26.9706 44.9534 26.3584C41.5796 30.2607 39.6152 34.5069 38.4289 39.4986C36.7239 47.5608 38.5861 55.8332 42.4419 62.8783C50.5794 77.7469 66.004 87.8019 82.2063 91.8317C84.3598 92.3673 86.5986 93.0781 88.737 93.7257C85.9887 95.0457 83.1345 96.374 80.3388 97.6231C63.4393 105.171 46.9077 113.981 31.7274 124.603C26.9956 127.914 22.7932 131.653 18.3407 135.265C13.2968 129.119 7.8652 118.899 5.21645 111.375C8.11484 109.66 13.3105 107.758 16.5369 106.599C23.2 104.207 30.0516 101.894 36.9014 100.12C40.6855 99.1409 44.6104 98.5244 48.3538 97.335C39.9242 93.2778 22.3705 90.583 12.6483 89.9487C10.1023 89.7827 3.7699 90.2037 0.422316 90.1532C0.0342991 83.1923 -0.279796 76.4288 0.393679 69.4731C2.9674 42.8901 20.0754 17.418 44.5037 6.18387C52.5217 2.49626 60.2143 0.678341 69.0662 0.113535Z" fill="url(#paint0_linear_7517_619)"/>
<path d="M190.019 42.5142C190.222 42.8161 190.303 44.0794 190.333 44.518C190.819 51.6534 190.022 58.7674 187.396 65.4433C177.004 91.8595 146.29 98.1003 122.192 106.046C111.001 109.736 100.503 113.099 89.9204 118.416C83.1786 121.804 76.4027 125.488 70.1987 129.773C67.9554 131.318 65.9002 133.086 63.7618 134.767C56.9447 140.124 51.109 146.771 45.0555 152.963C43.9834 154.06 42.8405 155.769 41.8162 156.997L36.5727 153.009C34.9589 151.808 33.4273 150.651 31.8577 149.395C33.3525 146.922 36.0712 143.652 37.9839 141.477C41.9371 136.983 46.0912 132.394 50.5796 128.427C53.1903 126.119 55.9532 123.31 58.6436 121.144C68.5454 113.171 80.0713 106.073 91.4604 100.42C121.407 85.5568 155.806 77.4809 180.434 53.5576C183.881 50.2086 186.965 46.2249 190.019 42.5142Z" fill="#E7050B"/>
<path d="M185.136 87.84L185.269 88.0153C184.27 101.333 174.226 116.184 163.044 123.184C151.077 130.675 136.163 134.078 122.596 137.573C104.895 142.135 87.0538 147.235 72.6534 159.056C69.5868 161.586 66.3458 165.133 63.636 168.047C61.2072 166.959 58.7067 166.031 56.1501 164.86C54.8399 164.227 53.7018 163.605 52.4337 162.901C57.1898 155.657 65.1161 148.026 71.9655 142.736C83.8769 133.538 98.0414 126.731 112.238 121.835C121.909 118.484 132.416 115.755 142.053 112.475C156.405 107.593 171.002 102.459 181.734 91.2997C182.838 90.1515 183.963 88.9462 185.136 87.84Z" fill="#0052B4"/>
<path d="M166.891 133.318L167.107 133.426C166.706 134.534 165.385 136.285 164.684 137.318C160.484 143.5 154.362 149.453 148.371 153.932C132.258 165.981 110.612 173.432 90.4215 172.981C86.227 172.887 81.6997 172.219 77.5301 171.607C77.1454 171.577 76.1942 171.376 75.7723 171.3C76.7541 170.095 78.0931 168.87 79.3214 167.915C102.789 149.687 134.585 150.952 160.183 137.248C162.475 136.02 164.574 134.517 166.891 133.318Z" fill="#E6060B"/>
<path d="M77.9542 13.232C82.5926 13.5888 88.1132 14.2257 92.7321 14.806C92.4369 16.743 91.9044 17.6549 90.5548 19.0173C86.4458 22.2632 81.6879 21.3558 79.0794 16.7837C78.6075 15.9569 77.9259 14.1784 77.9542 13.232Z" fill="url(#paint1_linear_7517_619)"/>
<defs>
<linearGradient id="paint0_linear_7517_619" x1="3.83581e-07" y1="13.9726" x2="132.636" y2="121.292" gradientUnits="userSpaceOnUse">
<stop stop-color="#EFCB38"/>
<stop offset="1" stop-color="#A2871A"/>
</linearGradient>
<linearGradient id="paint1_linear_7517_619" x1="3.83581e-07" y1="13.9726" x2="132.636" y2="121.292" gradientUnits="userSpaceOnUse">
<stop stop-color="#EFCB38"/>
<stop offset="1" stop-color="#A2871A"/>
</linearGradient>
</defs>
</svg>
