<svg width="184" height="167" viewBox="0 0 184 167" fill="none" xmlns="http://www.w3.org/2000/svg">
<path d="M66.5009 0.109319C77.4282 -0.523162 89.0923 1.52388 98.1674 7.95183C99.7937 8.76076 102.532 12.0314 103.957 12.6238C108.743 14.6142 113.013 14.8976 116.476 19.4797C120.58 24.9099 119.813 32.1221 115.451 37.2233C114.15 38.7448 113.062 39.6206 111.461 40.8016C111.821 35.9106 110.71 32.3181 105.021 31.8877C96.8248 31.268 86.8459 36.4233 86.1558 45.4212C85.7872 50.2305 87.7673 54.9617 90.9676 58.5448C100.012 68.318 114.853 72.4598 127.709 73.4541C125.792 74.6722 121.941 75.8051 119.589 76.7546C116.202 78.0473 112.791 79.4525 109.37 80.636C107.559 81.263 103.797 79.5812 101.975 78.9815C88.7292 74.6351 71.6127 62.7437 73.7381 46.8771C74.6255 40.254 79.537 35.9289 84.5964 32.2798C80.5829 32.5346 78.85 32.925 74.8842 33.8563C77.0906 31.3042 81.0572 29.1493 84.2477 28.1716C85.9632 27.6457 87.922 27.2672 89.5066 26.4106C90.1983 26.0364 90.6322 25.5756 91.0541 24.9159C92.3187 22.937 95.6622 14.1859 96.353 11.7015C93.5661 10.9715 90.9753 9.78108 88.1236 9.00753C77.839 6.21762 66.7728 5.98364 56.7375 9.89957C49.037 12.9043 38.9885 19.7367 35.5922 27.4364C38.2354 26.6518 40.5927 25.969 43.2837 25.3796C40.0353 29.137 38.1438 33.2255 37.0016 38.0318C35.3599 45.7946 37.1529 53.7598 40.8655 60.5432C48.7007 74.8597 63.5524 84.5413 79.153 88.4214C81.2264 88.9371 83.3821 89.6216 85.4411 90.2451C82.7948 91.5161 80.0467 92.7951 77.3548 93.9978C61.083 101.265 45.1654 109.748 30.549 119.976C25.9929 123.164 21.9466 126.764 17.6595 130.241C12.8029 124.325 7.57306 114.483 5.02269 107.239C7.81344 105.587 12.8161 103.757 15.9227 102.641C22.3383 100.337 28.9354 98.1098 35.5308 96.4024C39.1743 95.4593 42.9534 94.8656 46.5578 93.7204C38.4413 89.8138 21.5396 87.2191 12.1786 86.6084C9.72707 86.4485 3.62988 86.8539 0.40663 86.8053C0.0330252 80.1029 -0.269404 73.5905 0.379056 66.8932C2.85718 41.2973 19.3297 16.7712 42.8507 5.95423C50.5709 2.40356 57.9778 0.65315 66.5009 0.109319Z" fill="white"/>
<path d="M182.961 40.9375C183.156 41.2282 183.234 42.4445 183.262 42.8669C183.731 49.7373 182.964 56.5872 180.435 63.0151C170.429 88.4503 140.856 94.4593 117.653 102.11C106.877 105.663 96.7699 108.901 86.5799 114.021C80.0885 117.283 73.5642 120.83 67.5907 124.956C65.4307 126.443 63.4518 128.146 61.3929 129.764C54.829 134.922 49.21 141.323 43.3813 147.285C42.3491 148.341 41.2486 149.986 40.2624 151.169L35.2137 147.329C33.6598 146.172 32.1851 145.059 30.6738 143.849C32.1131 141.468 34.7308 138.319 36.5724 136.226C40.3788 131.898 44.3786 127.479 48.7003 123.66C51.214 121.438 53.8743 118.733 56.4648 116.647C65.9988 108.971 77.0966 102.136 88.0626 96.693C116.897 82.3816 150.018 74.6056 173.731 51.5708C177.051 48.3461 180.02 44.5103 182.961 40.9375Z" fill="white"/>
<path d="M178.26 84.5781L178.388 84.7469C177.426 97.57 167.755 111.869 156.988 118.609C145.466 125.822 131.105 129.099 118.043 132.465C100.999 136.857 83.8205 141.767 69.955 153.149C67.0023 155.586 63.8817 159.001 61.2725 161.807C58.934 160.759 56.5264 159.865 54.0647 158.738C52.8031 158.129 51.7074 157.529 50.4863 156.852C55.0658 149.877 62.6978 142.529 69.2927 137.435C80.7617 128.579 94.4001 122.025 108.069 117.31C117.381 114.084 127.498 111.456 136.777 108.299C150.596 103.597 164.651 98.6547 174.984 87.9093C176.047 86.8037 177.131 85.6432 178.26 84.5781Z" fill="white"/>
<path d="M160.692 128.367L160.9 128.471C160.514 129.538 159.243 131.224 158.568 132.218C154.523 138.171 148.629 143.903 142.86 148.216C127.346 159.817 106.504 166.991 87.063 166.557C83.0244 166.466 78.6652 165.823 74.6504 165.234C74.2801 165.205 73.3642 165.012 72.958 164.939C73.9033 163.778 75.1926 162.599 76.3753 161.68C98.971 144.128 129.586 145.346 154.233 132.151C156.44 130.969 158.462 129.522 160.692 128.367Z" fill="white"/>
<path d="M75.0584 12.7383C79.5246 13.0818 84.8401 13.6951 89.2875 14.2538C89.0032 16.1189 88.4905 16.9969 87.191 18.3087C83.2346 21.434 78.6534 20.5603 76.1418 16.1581C75.6875 15.362 75.0312 13.6495 75.0584 12.7383Z" fill="white"/>
</svg>
