<svg width="274" height="71" viewBox="0 0 274 71" fill="none" xmlns="http://www.w3.org/2000/svg">
<path d="M27.1474 1.74563C31.6082 1.48744 36.3698 2.32309 40.0745 4.94713C40.7384 5.27735 41.8563 6.61251 42.4381 6.85435C44.3919 7.66686 46.1349 7.78256 47.5485 9.65307C49.224 11.8698 48.9107 14.814 47.1299 16.8964C46.5989 17.5175 46.1547 17.8751 45.5014 18.3572C45.6481 16.3605 45.1949 14.894 42.8723 14.7183C39.5264 14.4653 35.4528 16.5698 35.1711 20.243C35.0206 22.2063 35.8289 24.1377 37.1354 25.6004C40.8275 29.59 46.8858 31.2808 52.1343 31.6867C51.3517 32.1839 49.7794 32.6464 48.8193 33.034C47.4368 33.5617 46.0443 34.1354 44.6479 34.6185C43.9083 34.8744 42.3728 34.1879 41.6289 33.9431C36.2216 32.1688 29.2342 27.3145 30.1018 20.8373C30.4641 18.1336 32.4691 16.368 34.5345 14.8784C32.896 14.9824 32.1886 15.1418 30.5697 15.5219C31.4704 14.4801 33.0897 13.6004 34.3921 13.2013C35.0924 12.9866 35.8921 12.8321 36.5389 12.4824C36.8213 12.3297 36.9984 12.1416 37.1707 11.8722C37.6869 11.0644 39.0518 7.49201 39.3338 6.47785C38.1961 6.17981 37.1385 5.69387 35.9744 5.37809C31.7759 4.23918 27.2584 4.14367 23.1617 5.74224C20.0182 6.96883 15.9161 9.75798 14.5297 12.9012C15.6087 12.5809 16.571 12.3022 17.6696 12.0615C16.3434 13.5954 15.5713 15.2644 15.105 17.2265C14.4348 20.3954 15.1668 23.647 16.6824 26.4162C19.8809 32.2605 25.9438 36.2127 32.3123 37.7967C33.1588 38.0072 34.0388 38.2866 34.8793 38.5412C33.799 39.06 32.6772 39.5821 31.5783 40.0731C24.9357 43.0399 18.4377 46.5029 12.4709 50.6778C10.611 51.9792 8.95917 53.4489 7.20905 54.8686C5.22649 52.4532 3.09152 48.4357 2.0504 45.4786C3.18965 44.8043 5.23189 44.0568 6.50006 43.6014C9.11906 42.6608 11.8122 41.7517 14.5046 41.0547C15.992 40.6697 17.5347 40.4273 19.0061 39.9598C15.6927 38.3651 8.79301 37.3059 4.97161 37.0566C3.97084 36.9913 1.48181 37.1568 0.165997 37.1369C0.0134817 34.4009 -0.109978 31.7424 0.154741 29.0084C1.16638 18.5595 7.8909 8.5474 17.4928 4.13166C20.6444 2.68219 23.668 1.96764 27.1474 1.74563Z" fill="url(#paint0_linear_7516_618)"/>
<path d="M74.6896 18.4118C74.7695 18.5305 74.8011 19.027 74.8128 19.1994C75.004 22.0041 74.6908 24.8004 73.6584 27.4244C69.5738 37.8077 57.5013 40.2607 48.0294 43.3839C43.6303 44.8342 39.5043 46.156 35.3445 48.2461C32.6945 49.5777 30.0311 51.0256 27.5926 52.71C26.7108 53.3172 25.903 54.0123 25.0625 54.6729C22.3829 56.7786 20.0891 59.3915 17.7097 61.8254C17.2883 62.2564 16.8391 62.9281 16.4365 63.4108L14.3754 61.8431C13.7411 61.3711 13.1391 60.9165 12.5221 60.4227C13.1097 59.4507 14.1783 58.1653 14.9301 57.3107C16.484 55.5442 18.1168 53.7401 19.881 52.1809C20.9072 51.2739 21.9932 50.1696 23.0507 49.3183C26.9427 46.1845 31.4731 43.3943 35.9498 41.1725C47.7207 35.3303 61.2416 32.1559 70.922 22.7526C72.2771 21.4362 73.4893 19.8703 74.6896 18.4118Z" fill="#E7050B"/>
<path d="M72.7703 36.2277L72.8227 36.2966C72.4297 41.5313 68.4818 47.3687 64.0867 50.12C59.3829 53.0646 53.5206 54.402 48.1882 55.7761C41.2303 57.5692 34.2177 59.5737 28.5574 64.22C27.352 65.2146 26.0781 66.6088 25.013 67.7543C24.0583 67.3266 23.0755 66.9616 22.0706 66.5014C21.5556 66.2528 21.1082 66.008 20.6098 65.7315C22.4792 62.8841 25.5948 59.8844 28.287 57.8053C32.969 54.1897 38.5365 51.5144 44.1166 49.5897C47.9181 48.2728 52.0478 47.1999 55.836 45.911C61.477 43.9918 67.2146 41.9741 71.4329 37.5876C71.867 37.1363 72.3093 36.6625 72.7703 36.2277Z" fill="#0052B4"/>
<path d="M65.5987 54.1034L65.6836 54.1457C65.526 54.5814 65.007 55.2698 64.7314 55.6756C63.0803 58.1056 60.6742 60.4454 58.3193 62.2061C51.9859 66.942 43.4777 69.8706 35.5414 69.6934C33.8927 69.6565 32.1132 69.3939 30.4742 69.1535C30.323 69.1416 29.9492 69.0627 29.7833 69.0329C30.1692 68.559 30.6955 68.0776 31.1784 67.7024C40.4025 60.5376 52.9006 61.0346 62.962 55.6481C63.863 55.1656 64.6882 54.5748 65.5987 54.1034Z" fill="#E6060B"/>
<path d="M30.6409 6.90205C32.4641 7.04228 34.6341 7.29264 36.4496 7.52074C36.3336 8.2821 36.1243 8.6405 35.5938 9.17603C33.9787 10.4519 32.1085 10.0952 31.0832 8.2981C30.8977 7.9731 30.6298 7.27403 30.6409 6.90205Z" fill="url(#paint1_linear_7516_618)"/>
<path d="M84.5204 22.701L93.7831 2.11719H97.547L106.839 22.701H102.84L94.8711 4.14616H96.4002L88.4607 22.701H84.5204ZM88.7842 17.9373L89.8134 14.9379H100.929L101.958 17.9373H88.7842Z" fill="#003366"/>
<path d="M128.923 6.82205C130.178 6.82205 131.285 7.0671 132.246 7.55719C133.226 8.04728 133.991 8.80202 134.54 9.82141C135.089 10.8212 135.363 12.115 135.363 13.7029V22.701H131.687V14.1734C131.687 12.7815 131.383 11.7426 130.776 11.0564C130.168 10.3703 129.296 10.0272 128.159 10.0272C127.355 10.0272 126.639 10.2037 126.012 10.5565C125.404 10.9094 124.924 11.4289 124.571 12.115C124.238 12.8012 124.071 13.6735 124.071 14.7321V22.701H120.396V14.1734C120.396 12.7815 120.092 11.7426 119.484 11.0564C118.876 10.3703 118.004 10.0272 116.867 10.0272C116.063 10.0272 115.348 10.2037 114.72 10.5565C114.113 10.9094 113.632 11.4289 113.28 12.115C112.946 12.8012 112.78 13.6735 112.78 14.7321V22.701H109.104V6.99849H112.603V11.1741L111.986 9.93903C112.515 8.91964 113.28 8.1453 114.279 7.616C115.299 7.0867 116.455 6.82205 117.749 6.82205C119.219 6.82205 120.494 7.18472 121.572 7.91005C122.67 8.63539 123.395 9.73319 123.748 11.2035L122.307 10.7036C122.817 9.52735 123.66 8.58638 124.836 7.88065C126.012 7.17492 127.375 6.82205 128.923 6.82205Z" fill="#003366"/>
<path d="M147.47 22.9068C145.725 22.9068 144.196 22.5637 142.882 21.8776C141.588 21.1719 140.579 20.2113 139.854 18.9959C139.148 17.7805 138.795 16.3984 138.795 14.8497C138.795 13.2814 139.138 11.8994 139.824 10.7036C140.53 9.48814 141.49 8.53737 142.706 7.85124C143.941 7.16512 145.343 6.82205 146.911 6.82205C148.44 6.82205 149.802 7.15532 150.998 7.82184C152.194 8.48836 153.135 9.42933 153.821 10.6448C154.507 11.8602 154.85 13.2912 154.85 14.9379C154.85 15.0948 154.841 15.2712 154.821 15.4672C154.821 15.6633 154.811 15.8495 154.792 16.0259H141.706V13.5853H152.851L151.41 14.3498C151.429 13.4481 151.243 12.6541 150.851 11.968C150.459 11.2819 149.92 10.7428 149.234 10.3507C148.567 9.95863 147.793 9.7626 146.911 9.7626C146.009 9.7626 145.215 9.95863 144.529 10.3507C143.862 10.7428 143.333 11.2917 142.941 11.9974C142.569 12.6835 142.382 13.4971 142.382 14.4381V15.0262C142.382 15.9671 142.598 16.8003 143.029 17.5256C143.461 18.251 144.068 18.8097 144.852 19.2017C145.637 19.5938 146.538 19.7898 147.558 19.7898C148.44 19.7898 149.234 19.6526 149.94 19.3782C150.645 19.1037 151.273 18.6724 151.822 18.0843L153.792 20.3485C153.086 21.1719 152.194 21.809 151.116 22.2599C150.057 22.6912 148.842 22.9068 147.47 22.9068Z" fill="#003366"/>
<path d="M158.381 22.701V6.99849H161.88V11.3211L161.469 10.0566C161.939 8.99805 162.674 8.19431 163.674 7.64541C164.693 7.0965 165.958 6.82205 167.467 6.82205V10.3213C167.31 10.2821 167.163 10.2625 167.026 10.2625C166.889 10.2429 166.752 10.2331 166.615 10.2331C165.223 10.2331 164.115 10.6448 163.292 11.4681C162.468 12.2719 162.057 13.4775 162.057 15.085V22.701H158.381Z" fill="#003366"/>
<path d="M170.585 22.701V6.99849H174.261V22.701H170.585ZM172.438 4.41081C171.752 4.41081 171.183 4.19517 170.732 3.76389C170.301 3.33261 170.086 2.81312 170.086 2.20541C170.086 1.57809 170.301 1.05859 170.732 0.646918C171.183 0.215639 171.752 0 172.438 0C173.124 0 173.683 0.205838 174.114 0.617513C174.565 1.00959 174.79 1.50948 174.79 2.11719C174.79 2.76411 174.575 3.31301 174.143 3.76389C173.712 4.19517 173.144 4.41081 172.438 4.41081Z" fill="#003366"/>
<path d="M186.29 22.9068C184.643 22.9068 183.173 22.5637 181.879 21.8776C180.605 21.1719 179.605 20.2113 178.88 18.9959C178.154 17.7805 177.792 16.3984 177.792 14.8497C177.792 13.2814 178.154 11.8994 178.88 10.7036C179.605 9.48814 180.605 8.53737 181.879 7.85124C183.173 7.16512 184.643 6.82205 186.29 6.82205C187.819 6.82205 189.162 7.13571 190.318 7.76303C191.495 8.37074 192.386 9.2725 192.994 10.4683L190.171 12.115C189.701 11.3701 189.122 10.8212 188.436 10.4683C187.77 10.1155 187.044 9.93903 186.26 9.93903C185.359 9.93903 184.545 10.1351 183.82 10.5271C183.094 10.9192 182.526 11.4877 182.114 12.2326C181.702 12.958 181.497 13.8303 181.497 14.8497C181.497 15.8691 181.702 16.7513 182.114 17.4962C182.526 18.2216 183.094 18.7803 183.82 19.1723C184.545 19.5644 185.359 19.7604 186.26 19.7604C187.044 19.7604 187.77 19.584 188.436 19.2311C189.122 18.8783 189.701 18.3294 190.171 17.5844L192.994 19.2311C192.386 20.4074 191.495 21.3189 190.318 21.9658C189.162 22.5932 187.819 22.9068 186.29 22.9068Z" fill="#003366"/>
<path d="M205.846 22.701V19.5252L205.64 18.8489V13.2912C205.64 12.213 205.317 11.3799 204.67 10.7918C204.023 10.1841 203.043 9.88022 201.729 9.88022C200.847 9.88022 199.975 10.0174 199.112 10.2919C198.269 10.5663 197.554 10.9486 196.966 11.4387L195.525 8.76281C196.368 8.11589 197.367 7.6356 198.524 7.32195C199.7 6.98868 200.916 6.82205 202.17 6.82205C204.444 6.82205 206.199 7.37095 207.434 8.46876C208.688 9.54696 209.316 11.2231 209.316 13.4971V22.701H205.846ZM200.906 22.9068C199.73 22.9068 198.7 22.7108 197.818 22.3187C196.936 21.907 196.25 21.3483 195.76 20.6426C195.289 19.9173 195.054 19.1037 195.054 18.2019C195.054 17.3198 195.26 16.5258 195.672 15.8201C196.103 15.1144 196.799 14.5557 197.759 14.144C198.72 13.7323 199.994 13.5265 201.582 13.5265H206.14V15.9671H201.847C200.592 15.9671 199.749 16.173 199.318 16.5847C198.887 16.9767 198.671 17.4668 198.671 18.0549C198.671 18.7214 198.936 19.2507 199.465 19.6428C199.994 20.0349 200.729 20.2309 201.67 20.2309C202.572 20.2309 203.376 20.0251 204.082 19.6134C204.807 19.2017 205.326 18.594 205.64 17.7903L206.258 19.9957C205.905 20.917 205.268 21.6326 204.346 22.1423C203.445 22.652 202.298 22.9068 200.906 22.9068Z" fill="#003366"/>
<path d="M222.943 6.82205C224.198 6.82205 225.315 7.0671 226.295 7.55719C227.295 8.04728 228.079 8.80202 228.648 9.82141C229.216 10.8212 229.5 12.115 229.5 13.7029V22.701H225.825V14.1734C225.825 12.7815 225.491 11.7426 224.825 11.0564C224.178 10.3703 223.266 10.0272 222.09 10.0272C221.228 10.0272 220.463 10.2037 219.797 10.5565C219.13 10.9094 218.61 11.4387 218.238 12.1444C217.885 12.8306 217.709 13.7029 217.709 14.7615V22.701H214.033V6.99849H217.532V11.2329L216.915 9.93903C217.464 8.93924 218.258 8.1747 219.297 7.64541C220.355 7.0965 221.571 6.82205 222.943 6.82205Z" fill="#003366"/>
<path d="M92.2834 53.5028L85.4614 32.919H89.4311L95.518 51.5326H93.5478L99.87 32.919H103.399L109.544 51.5326H107.633L113.867 32.919H117.513L110.691 53.5028H106.633L101.017 36.7123H102.075L96.3708 53.5028H92.2834Z" fill="#003366"/>
<path d="M126.478 53.7086C124.733 53.7086 123.204 53.3656 121.891 52.6794C120.597 51.9737 119.587 51.0131 118.862 49.7977C118.156 48.5823 117.803 47.2002 117.803 45.6515C117.803 44.0832 118.146 42.7012 118.833 41.5054C119.538 40.2899 120.499 39.3392 121.714 38.653C122.949 37.9669 124.351 37.6239 125.919 37.6239C127.448 37.6239 128.811 37.9571 130.007 38.6236C131.202 39.2902 132.143 40.2311 132.83 41.4466C133.516 42.662 133.859 44.093 133.859 45.7397C133.859 45.8966 133.849 46.073 133.829 46.269C133.829 46.4651 133.82 46.6513 133.8 46.8278H120.715V44.3871H131.859L130.418 45.1516C130.438 44.2499 130.252 43.4559 129.86 42.7698C129.468 42.0837 128.928 41.5446 128.242 41.1525C127.576 40.7604 126.801 40.5644 125.919 40.5644C125.018 40.5644 124.224 40.7604 123.537 41.1525C122.871 41.5446 122.342 42.0935 121.95 42.7992C121.577 43.4853 121.391 44.2989 121.391 45.2399V45.828C121.391 46.7689 121.607 47.6021 122.038 48.3274C122.469 49.0528 123.077 49.6115 123.861 50.0035C124.645 50.3956 125.547 50.5916 126.566 50.5916C127.448 50.5916 128.242 50.4544 128.948 50.18C129.654 49.9055 130.281 49.4742 130.83 48.8861L132.8 51.1503C132.094 51.9737 131.202 52.6108 130.124 53.0617C129.066 53.493 127.85 53.7086 126.478 53.7086Z" fill="#003366"/>
<path d="M146.633 53.5028V50.327L146.427 49.6507V44.093C146.427 43.0148 146.104 42.1817 145.457 41.5936C144.81 40.9859 143.83 40.682 142.516 40.682C141.634 40.682 140.762 40.8192 139.899 41.0937C139.056 41.3681 138.341 41.7504 137.753 42.2405L136.312 39.5646C137.155 38.9177 138.155 38.4374 139.311 38.1237C140.487 37.7905 141.703 37.6239 142.957 37.6239C145.231 37.6239 146.986 38.1728 148.221 39.2706C149.476 40.3488 150.103 42.0249 150.103 44.2989V53.5028H146.633ZM141.693 53.7086C140.517 53.7086 139.488 53.5126 138.605 53.1205C137.723 52.7088 137.037 52.1501 136.547 51.4444C136.077 50.7191 135.841 49.9055 135.841 49.0037C135.841 48.1216 136.047 47.3276 136.459 46.6219C136.89 45.9162 137.586 45.3575 138.547 44.9458C139.507 44.5341 140.781 44.3283 142.369 44.3283H146.927V46.7689H142.634C141.379 46.7689 140.536 46.9748 140.105 47.3865C139.674 47.7785 139.458 48.2686 139.458 48.8567C139.458 49.5232 139.723 50.0525 140.252 50.4446C140.781 50.8367 141.517 51.0327 142.458 51.0327C143.359 51.0327 144.163 50.8269 144.869 50.4152C145.594 50.0035 146.114 49.3958 146.427 48.5921L147.045 50.7975C146.692 51.7189 146.055 52.4344 145.133 52.9441C144.232 53.4538 143.085 53.7086 141.693 53.7086Z" fill="#003366"/>
<path d="M154.82 53.5028V31.684H158.496V53.5028H154.82Z" fill="#003366"/>
<path d="M170.006 53.7086C168.281 53.7086 166.948 53.2675 166.007 52.3854C165.066 51.4836 164.595 50.1604 164.595 48.4156V34.3305H168.271V48.3274C168.271 49.0724 168.457 49.6507 168.83 50.0623C169.222 50.474 169.761 50.6799 170.447 50.6799C171.27 50.6799 171.957 50.4642 172.506 50.0329L173.535 52.65C173.103 53.0029 172.574 53.2675 171.947 53.444C171.319 53.6204 170.673 53.7086 170.006 53.7086ZM162.008 40.8585V37.9179H172.476V40.8585H162.008Z" fill="#003366"/>
<path d="M185.468 37.6239C186.723 37.6239 187.84 37.8689 188.82 38.359C189.82 38.8491 190.604 39.6038 191.173 40.6232C191.741 41.623 192.026 42.9168 192.026 44.5047V53.5028H188.35V44.9752C188.35 43.5834 188.017 42.5444 187.35 41.8582C186.703 41.1721 185.792 40.829 184.615 40.829C183.753 40.829 182.988 41.0055 182.322 41.3583C181.655 41.7112 181.136 42.2405 180.763 42.9462C180.411 43.6324 180.234 44.5047 180.234 45.5633V53.5028H176.558V31.684H180.234V42.0347L179.44 40.7408C179.989 39.741 180.783 38.9765 181.822 38.4472C182.881 37.8983 184.096 37.6239 185.468 37.6239Z" fill="#003366"/>
<path d="M214.695 53.7968C213.127 53.7968 211.667 53.542 210.314 53.0323C208.981 52.503 207.814 51.7679 206.815 50.8269C205.835 49.8663 205.07 48.7391 204.521 47.4453C203.972 46.1514 203.698 44.74 203.698 43.2109C203.698 41.6818 203.972 40.2703 204.521 38.9765C205.07 37.6827 205.844 36.5653 206.844 35.6243C207.844 34.6637 209.01 33.9286 210.343 33.4189C211.676 32.8896 213.137 32.6249 214.725 32.6249C216.411 32.6249 217.95 32.919 219.341 33.5071C220.733 34.0756 221.909 34.9284 222.87 36.0654L220.4 38.3884C219.655 37.5846 218.822 36.9867 217.901 36.5947C216.979 36.183 215.979 35.9772 214.901 35.9772C213.823 35.9772 212.833 36.1536 211.931 36.5065C211.049 36.8593 210.275 37.3592 209.608 38.0061C208.961 38.653 208.452 39.4176 208.079 40.2998C207.726 41.1819 207.55 42.1523 207.55 43.2109C207.55 44.2695 207.726 45.2399 208.079 46.122C208.452 47.0042 208.961 47.7687 209.608 48.4156C210.275 49.0626 211.049 49.5625 211.931 49.9153C212.833 50.2682 213.823 50.4446 214.901 50.4446C215.979 50.4446 216.979 50.2486 217.901 49.8565C218.822 49.4448 219.655 48.8273 220.4 48.004L222.87 50.3564C221.909 51.4738 220.733 52.3266 219.341 52.9147C217.95 53.5028 216.401 53.7968 214.695 53.7968Z" fill="#003366"/>
<path d="M232.634 53.7086C231.027 53.7086 229.596 53.3656 228.341 52.6794C227.086 51.9737 226.096 51.0131 225.371 49.7977C224.646 48.5823 224.283 47.2002 224.283 45.6515C224.283 44.0832 224.646 42.7012 225.371 41.5054C226.096 40.2899 227.086 39.3392 228.341 38.653C229.596 37.9669 231.027 37.6239 232.634 37.6239C234.261 37.6239 235.702 37.9669 236.957 38.653C238.231 39.3392 239.221 40.2801 239.927 41.476C240.652 42.6718 241.015 44.0636 241.015 45.6515C241.015 47.2002 240.652 48.5823 239.927 49.7977C239.221 51.0131 238.231 51.9737 236.957 52.6794C235.702 53.3656 234.261 53.7086 232.634 53.7086ZM232.634 50.5622C233.536 50.5622 234.34 50.3662 235.046 49.9741C235.751 49.5821 236.3 49.0136 236.692 48.2686C237.104 47.5237 237.31 46.6513 237.31 45.6515C237.31 44.6321 237.104 43.7598 236.692 43.0345C236.3 42.2895 235.751 41.721 235.046 41.3289C234.34 40.9369 233.546 40.7408 232.664 40.7408C231.762 40.7408 230.958 40.9369 230.252 41.3289C229.566 41.721 229.017 42.2895 228.606 43.0345C228.194 43.7598 227.988 44.6321 227.988 45.6515C227.988 46.6513 228.194 47.5237 228.606 48.2686C229.017 49.0136 229.566 49.5821 230.252 49.9741C230.958 50.3662 231.752 50.5622 232.634 50.5622Z" fill="#003366"/>
<path d="M244.53 53.5028V37.8003H248.029V42.1229L247.617 40.8585C248.088 39.7999 248.823 38.9961 249.823 38.4472C250.842 37.8983 252.106 37.6239 253.616 37.6239V41.1231C253.459 41.0839 253.312 41.0643 253.175 41.0643C253.038 41.0447 252.9 41.0349 252.763 41.0349C251.371 41.0349 250.264 41.4466 249.44 42.2699C248.617 43.0737 248.205 44.2793 248.205 45.8868V53.5028H244.53Z" fill="#003366"/>
<path d="M265.438 53.7086C264.164 53.7086 262.997 53.4146 261.939 52.8265C260.9 52.2383 260.067 51.3562 259.439 50.18C258.832 48.9841 258.528 47.4747 258.528 45.6515C258.528 43.8088 258.822 42.2993 259.41 41.1231C260.018 39.9469 260.841 39.0745 261.88 38.506C262.919 37.9179 264.105 37.6239 265.438 37.6239C266.987 37.6239 268.349 37.9571 269.525 38.6236C270.721 39.2902 271.662 40.2213 272.348 41.4172C273.054 42.613 273.407 44.0244 273.407 45.6515C273.407 47.2786 273.054 48.6999 272.348 49.9153C271.662 51.1111 270.721 52.0423 269.525 52.7088C268.349 53.3754 266.987 53.7086 265.438 53.7086ZM256.734 59.2074V37.8003H260.233V41.5054L260.116 45.6809L260.41 49.8565V59.2074H256.734ZM265.026 50.5622C265.909 50.5622 266.693 50.3662 267.379 49.9741C268.085 49.5821 268.643 49.0136 269.055 48.2686C269.467 47.5237 269.672 46.6513 269.672 45.6515C269.672 44.6321 269.467 43.7598 269.055 43.0345C268.643 42.2895 268.085 41.721 267.379 41.3289C266.693 40.9369 265.909 40.7408 265.026 40.7408C264.144 40.7408 263.35 40.9369 262.645 41.3289C261.939 41.721 261.38 42.2895 260.968 43.0345C260.557 43.7598 260.351 44.6321 260.351 45.6515C260.351 46.6513 260.557 47.5237 260.968 48.2686C261.38 49.0136 261.939 49.5821 262.645 49.9741C263.35 50.3662 264.144 50.5622 265.026 50.5622Z" fill="#003366"/>
<path d="M85.6966 70.3046V63.4433H88.7744C89.565 63.4433 90.1728 63.6034 90.5975 63.9236C91.0222 64.2373 91.2346 64.6685 91.2346 65.2174C91.2346 65.5899 91.1497 65.9036 90.9798 66.1584C90.8164 66.4133 90.5942 66.6093 90.3132 66.7465C90.0323 66.8838 89.7284 66.9524 89.4017 66.9524L89.5781 66.6583C89.9702 66.6583 90.3165 66.7269 90.6171 66.8642C90.9177 67.0014 91.1562 67.2039 91.3326 67.4719C91.5091 67.7332 91.5973 68.06 91.5973 68.452C91.5973 69.0401 91.3751 69.4976 90.9308 69.8243C90.4929 70.1445 89.8395 70.3046 88.9704 70.3046H85.6966ZM86.6768 69.5106H88.9312C89.4736 69.5106 89.8885 69.4192 90.176 69.2362C90.4635 69.0532 90.6073 68.7657 90.6073 68.3736C90.6073 67.975 90.4635 67.6842 90.176 67.5013C89.8885 67.3183 89.4736 67.2268 88.9312 67.2268H86.5886V66.4329H88.6861C89.1828 66.4329 89.5683 66.3414 89.8428 66.1584C90.1172 65.9754 90.2544 65.701 90.2544 65.3351C90.2544 64.9691 90.1172 64.6947 89.8428 64.5117C89.5683 64.3288 89.1828 64.2373 88.6861 64.2373H86.6768V69.5106Z" fill="#003366"/>
<path d="M96.6436 70.383C95.7418 70.383 95.0328 70.1249 94.5166 69.6087C94.0004 69.0924 93.7423 68.3377 93.7423 67.3444V63.4433H94.7225V67.3052C94.7225 68.0698 94.8891 68.6285 95.2223 68.9813C95.5621 69.3342 96.0392 69.5106 96.6534 69.5106C97.2742 69.5106 97.7512 69.3342 98.0845 68.9813C98.4243 68.6285 98.5942 68.0698 98.5942 67.3052V63.4433H99.5449V67.3444C99.5449 68.3377 99.2868 69.0924 98.7706 69.6087C98.2609 70.1249 97.5519 70.383 96.6436 70.383Z" fill="#003366"/>
<path d="M102.241 70.3046V63.4433H103.221V70.3046H102.241Z" fill="#003366"/>
<path d="M105.961 70.3046V63.4433H106.941V69.4518H110.656V70.3046H105.961Z" fill="#003366"/>
<path d="M112.467 70.3046V63.4433H115.359C116.09 63.4433 116.734 63.5871 117.289 63.8746C117.851 64.1621 118.286 64.564 118.593 65.0802C118.907 65.5965 119.064 66.1944 119.064 66.8739C119.064 67.5535 118.907 68.1515 118.593 68.6677C118.286 69.1839 117.851 69.5858 117.289 69.8733C116.734 70.1608 116.09 70.3046 115.359 70.3046H112.467ZM113.447 69.4518H115.3C115.868 69.4518 116.358 69.344 116.77 69.1284C117.188 68.9127 117.512 68.6121 117.74 68.2266C117.969 67.8345 118.083 67.3836 118.083 66.8739C118.083 66.3577 117.969 65.9068 117.74 65.5213C117.512 65.1358 117.188 64.8352 116.77 64.6195C116.358 64.4039 115.868 64.2961 115.3 64.2961H113.447V69.4518Z" fill="#003366"/>
<path d="M121.251 70.3046V63.4433H122.231V70.3046H121.251Z" fill="#003366"/>
<path d="M124.972 70.3046V63.4433H125.775L130.314 69.0794H129.892V63.4433H130.872V70.3046H130.069L125.53 64.6685H125.952V70.3046H124.972Z" fill="#003366"/>
<path d="M136.709 70.383C136.18 70.383 135.693 70.298 135.249 70.1282C134.805 69.9517 134.419 69.7067 134.092 69.393C133.766 69.0728 133.511 68.7004 133.328 68.2756C133.145 67.8509 133.053 67.3836 133.053 66.8739C133.053 66.3643 133.145 65.897 133.328 65.4723C133.511 65.0475 133.766 64.6784 134.092 64.3647C134.426 64.0445 134.814 63.7995 135.259 63.6296C135.703 63.4531 136.193 63.3649 136.729 63.3649C137.271 63.3649 137.768 63.4531 138.219 63.6296C138.67 63.806 139.052 64.0706 139.366 64.4235L138.758 65.0312C138.477 64.7568 138.17 64.5575 137.837 64.4333C137.51 64.3026 137.154 64.2373 136.768 64.2373C136.376 64.2373 136.01 64.3026 135.67 64.4333C135.337 64.564 135.046 64.747 134.798 64.9822C134.556 65.2174 134.367 65.4984 134.23 65.8252C134.099 66.1453 134.034 66.4949 134.034 66.8739C134.034 67.2464 134.099 67.596 134.23 67.9227C134.367 68.2429 134.556 68.5239 134.798 68.7657C135.046 69.0009 135.337 69.1839 135.67 69.3146C136.004 69.4453 136.366 69.5106 136.758 69.5106C137.124 69.5106 137.474 69.4551 137.807 69.344C138.147 69.2264 138.461 69.0336 138.748 68.7657L139.307 69.5106C138.967 69.7982 138.569 70.0171 138.111 70.1674C137.66 70.3111 137.193 70.383 136.709 70.383ZM138.366 69.3832V66.8347H139.307V69.5106L138.366 69.3832Z" fill="#003366"/>
<path d="M146.766 70.3046L144.473 63.4433H145.482L147.59 69.7753H147.08L149.266 63.4433H150.167L152.304 69.7753H151.814L153.951 63.4433H154.882L152.589 70.3046H151.559L149.56 64.4333H149.824L147.815 70.3046H146.766Z" fill="#003366"/>
<path d="M157.659 66.4035H161.188V67.2366H157.659V66.4035ZM157.748 69.4518H161.747V70.3046H156.767V63.4433H161.609V64.2961H157.748V69.4518Z" fill="#003366"/>
<path d="M162.981 70.3046L166.088 63.4433H167.058L170.175 70.3046H169.146L166.372 63.9922H166.764L163.99 70.3046H162.981ZM164.304 68.5893L164.569 67.8051H168.431L168.715 68.5893H164.304Z" fill="#003366"/>
<path d="M171.885 70.3046V63.4433H172.865V69.4518H176.58V70.3046H171.885Z" fill="#003366"/>
<path d="M179.112 70.3046V64.2961H176.76V63.4433H182.435V64.2961H180.083V70.3046H179.112Z" fill="#003366"/>
<path d="M189.109 63.4433H190.089V70.3046H189.109V63.4433ZM185.169 70.3046H184.189V63.4433H185.169V70.3046ZM189.197 67.2464H185.071V66.3937H189.197V67.2464Z" fill="#003366"/>
<path d="M196.148 70.3046V63.4433H198.823C199.425 63.4433 199.938 63.5381 200.362 63.7276C200.787 63.9171 201.114 64.1915 201.343 64.5509C201.571 64.9103 201.686 65.3383 201.686 65.835C201.686 66.3316 201.571 66.7596 201.343 67.119C201.114 67.4719 200.787 67.743 200.362 67.9325C199.938 68.1221 199.425 68.2168 198.823 68.2168H196.687L197.128 67.7659V70.3046H196.148ZM200.735 70.3046L198.99 67.8149H200.039L201.803 70.3046H200.735ZM197.128 67.8639L196.687 67.3836H198.794C199.421 67.3836 199.895 67.2497 200.215 66.9818C200.542 66.7073 200.705 66.3251 200.705 65.835C200.705 65.3449 200.542 64.9659 200.215 64.698C199.895 64.43 199.421 64.2961 198.794 64.2961H196.687L197.128 63.806V67.8639Z" fill="#003366"/>
<path d="M204.847 66.4035H208.376V67.2366H204.847V66.4035ZM204.936 69.4518H208.935V70.3046H203.955V63.4433H208.797V64.2961H204.936V69.4518Z" fill="#003366"/>
<path d="M213.207 70.383C212.685 70.383 212.185 70.3046 211.708 70.1478C211.231 69.9844 210.855 69.7753 210.581 69.5204L210.943 68.7559C211.205 68.9846 211.538 69.1741 211.943 69.3244C212.348 69.4747 212.77 69.5498 213.207 69.5498C213.606 69.5498 213.93 69.5041 214.178 69.4126C214.426 69.3211 214.609 69.197 214.727 69.0401C214.844 68.8768 214.903 68.6938 214.903 68.4912C214.903 68.256 214.825 68.0665 214.668 67.9227C214.518 67.779 214.318 67.6646 214.07 67.5797C213.828 67.4882 213.56 67.4098 213.266 67.3444C212.972 67.2791 212.675 67.2039 212.374 67.119C212.08 67.0275 211.809 66.9132 211.561 66.7759C211.319 66.6387 211.123 66.4557 210.973 66.227C210.822 65.9918 210.747 65.6912 210.747 65.3253C210.747 64.9724 210.839 64.6489 211.022 64.3549C211.211 64.0543 211.499 63.8158 211.884 63.6394C212.276 63.4564 212.773 63.3649 213.374 63.3649C213.773 63.3649 214.168 63.4172 214.56 63.5217C214.952 63.6263 215.292 63.7766 215.58 63.9726L215.256 64.7568C214.962 64.5607 214.652 64.4202 214.325 64.3353C213.998 64.2438 213.681 64.1981 213.374 64.1981C212.989 64.1981 212.672 64.2471 212.423 64.3451C212.175 64.4431 211.992 64.5738 211.874 64.7372C211.763 64.9005 211.708 65.0835 211.708 65.2861C211.708 65.5278 211.783 65.7206 211.933 65.8644C212.09 66.0081 212.289 66.1225 212.531 66.2074C212.779 66.2924 213.051 66.3708 213.345 66.4427C213.639 66.508 213.933 66.5832 214.227 66.6681C214.527 66.7531 214.799 66.8641 215.04 67.0014C215.289 67.1386 215.488 67.3216 215.638 67.5503C215.789 67.779 215.864 68.073 215.864 68.4324C215.864 68.7788 215.769 69.1022 215.58 69.4028C215.39 69.6969 215.096 69.9354 214.697 70.1183C214.305 70.2948 213.809 70.383 213.207 70.383Z" fill="#003366"/>
<path d="M217.982 70.3046V63.4433H220.658C221.259 63.4433 221.772 63.5381 222.197 63.7276C222.621 63.9171 222.948 64.1915 223.177 64.5509C223.406 64.9103 223.52 65.3383 223.52 65.835C223.52 66.3316 223.406 66.7596 223.177 67.119C222.948 67.4719 222.621 67.7463 222.197 67.9423C221.772 68.1318 221.259 68.2266 220.658 68.2266H218.521L218.962 67.7659V70.3046H217.982ZM218.962 67.8639L218.521 67.3738H220.628C221.256 67.3738 221.729 67.2399 222.05 66.972C222.376 66.7041 222.54 66.3251 222.54 65.835C222.54 65.3449 222.376 64.9659 222.05 64.698C221.729 64.43 221.256 64.2961 220.628 64.2961H218.521L218.962 63.806V67.8639Z" fill="#003366"/>
<path d="M228.839 70.383C228.316 70.383 227.83 70.2948 227.379 70.1183C226.934 69.9419 226.549 69.6969 226.222 69.3832C225.895 69.063 225.64 68.6906 225.458 68.2658C225.275 67.8411 225.183 67.3771 225.183 66.8739C225.183 66.3708 225.275 65.9068 225.458 65.4821C225.64 65.0573 225.895 64.6881 226.222 64.3745C226.549 64.0543 226.934 63.806 227.379 63.6296C227.823 63.4531 228.31 63.3649 228.839 63.3649C229.362 63.3649 229.842 63.4531 230.28 63.6296C230.724 63.7995 231.11 64.0445 231.437 64.3647C231.77 64.6784 232.025 65.0475 232.201 65.4723C232.384 65.897 232.476 66.3643 232.476 66.8739C232.476 67.3836 232.384 67.8509 232.201 68.2756C232.025 68.7004 231.77 69.0728 231.437 69.393C231.11 69.7067 230.724 69.9517 230.28 70.1282C229.842 70.298 229.362 70.383 228.839 70.383ZM228.839 69.5106C229.218 69.5106 229.568 69.4453 229.888 69.3146C230.215 69.1839 230.496 69.0009 230.731 68.7657C230.973 68.5239 231.159 68.2429 231.29 67.9227C231.427 67.6026 231.495 67.253 231.495 66.8739C231.495 66.4949 231.427 66.1453 231.29 65.8252C231.159 65.505 230.973 65.2272 230.731 64.992C230.496 64.7502 230.215 64.564 229.888 64.4333C229.568 64.3026 229.218 64.2373 228.839 64.2373C228.454 64.2373 228.097 64.3026 227.771 64.4333C227.451 64.564 227.17 64.7502 226.928 64.992C226.686 65.2272 226.497 65.505 226.359 65.8252C226.229 66.1453 226.163 66.4949 226.163 66.8739C226.163 67.253 226.229 67.6026 226.359 67.9227C226.497 68.2429 226.686 68.5239 226.928 68.7657C227.17 69.0009 227.451 69.1839 227.771 69.3146C228.097 69.4453 228.454 69.5106 228.839 69.5106Z" fill="#003366"/>
<path d="M234.66 70.3046V63.4433H235.464L240.002 69.0794H239.58V63.4433H240.561V70.3046H239.757L235.219 64.6685H235.64V70.3046H234.66Z" fill="#003366"/>
<path d="M245.3 70.383C244.777 70.383 244.277 70.3046 243.8 70.1478C243.323 69.9844 242.948 69.7753 242.673 69.5204L243.036 68.7559C243.297 68.9846 243.63 69.1741 244.036 69.3244C244.441 69.4747 244.862 69.5498 245.3 69.5498C245.699 69.5498 246.022 69.5041 246.27 69.4126C246.519 69.3211 246.702 69.197 246.819 69.0401C246.937 68.8768 246.996 68.6938 246.996 68.4912C246.996 68.256 246.917 68.0665 246.76 67.9227C246.61 67.779 246.411 67.6646 246.163 67.5797C245.921 67.4882 245.653 67.4098 245.359 67.3444C245.065 67.2791 244.767 67.2039 244.467 67.119C244.173 67.0275 243.902 66.9132 243.653 66.7759C243.411 66.6387 243.215 66.4557 243.065 66.227C242.915 65.9918 242.84 65.6912 242.84 65.3253C242.84 64.9724 242.931 64.6489 243.114 64.3549C243.304 64.0543 243.591 63.8158 243.977 63.6394C244.369 63.4564 244.865 63.3649 245.467 63.3649C245.865 63.3649 246.261 63.4172 246.653 63.5217C247.045 63.6263 247.384 63.7766 247.672 63.9726L247.349 64.7568C247.054 64.5607 246.744 64.4202 246.417 64.3353C246.091 64.2438 245.774 64.1981 245.467 64.1981C245.081 64.1981 244.764 64.2471 244.516 64.3451C244.267 64.4431 244.085 64.5738 243.967 64.7372C243.856 64.9005 243.8 65.0835 243.8 65.2861C243.8 65.5278 243.875 65.7206 244.026 65.8644C244.183 66.0081 244.382 66.1225 244.624 66.2074C244.872 66.2924 245.143 66.3708 245.437 66.4427C245.731 66.508 246.025 66.5832 246.319 66.6681C246.62 66.7531 246.891 66.8641 247.133 67.0014C247.381 67.1386 247.581 67.3216 247.731 67.5503C247.881 67.779 247.956 68.073 247.956 68.4324C247.956 68.7788 247.861 69.1022 247.672 69.4028C247.482 69.6969 247.188 69.9354 246.79 70.1183C246.398 70.2948 245.901 70.383 245.3 70.383Z" fill="#003366"/>
<path d="M250.074 70.3046V63.4433H251.055V70.3046H250.074Z" fill="#003366"/>
<path d="M253.795 70.3046V63.4433H256.873C257.663 63.4433 258.271 63.6034 258.696 63.9236C259.12 64.2373 259.333 64.6685 259.333 65.2174C259.333 65.5899 259.248 65.9036 259.078 66.1584C258.915 66.4133 258.692 66.6093 258.411 66.7465C258.131 66.8838 257.827 66.9524 257.5 66.9524L257.676 66.6583C258.068 66.6583 258.415 66.7269 258.715 66.8642C259.016 67.0014 259.254 67.2039 259.431 67.4719C259.607 67.7332 259.696 68.06 259.696 68.452C259.696 69.0401 259.473 69.4976 259.029 69.8243C258.591 70.1445 257.938 70.3046 257.069 70.3046H253.795ZM254.775 69.5106H257.029C257.572 69.5106 257.987 69.4192 258.274 69.2362C258.562 69.0532 258.706 68.7657 258.706 68.3736C258.706 67.975 258.562 67.6842 258.274 67.5013C257.987 67.3183 257.572 67.2268 257.029 67.2268H254.687V66.4329H256.784C257.281 66.4329 257.667 66.3414 257.941 66.1584C258.215 65.9754 258.353 65.701 258.353 65.3351C258.353 64.9691 258.215 64.6947 257.941 64.5117C257.667 64.3288 257.281 64.2373 256.784 64.2373H254.775V69.5106Z" fill="#003366"/>
<path d="M261.899 70.3046V63.4433H262.879V69.4518H266.594V70.3046H261.899Z" fill="#003366"/>
<path d="M269.344 70.3046V67.6777L269.569 68.2854L266.619 63.4433H267.668L270.148 67.5307H269.579L272.069 63.4433H273.039L270.099 68.2854L270.314 67.6777V70.3046H269.344Z" fill="#003366"/>
<defs>
<linearGradient id="paint0_linear_7516_618" x1="9.72753e-07" y1="7.19136" x2="52.1342" y2="49.3747" gradientUnits="userSpaceOnUse">
<stop stop-color="#EFCB38"/>
<stop offset="1" stop-color="#A2871A"/>
</linearGradient>
<linearGradient id="paint1_linear_7516_618" x1="9.72753e-07" y1="7.19136" x2="52.1342" y2="49.3747" gradientUnits="userSpaceOnUse">
<stop stop-color="#EFCB38"/>
<stop offset="1" stop-color="#A2871A"/>
</linearGradient>
</defs>
</svg>
