<svg width="32" height="32" viewBox="0 0 32 32" fill="none" xmlns="http://www.w3.org/2000/svg">
<circle cx="16" cy="16" r="16" fill="#0052B4"/>
<g clip-path="url(#clip0_7519_656)">
<path d="M14.1979 8.5V11.5094C13.2465 11.5619 12.5261 11.7355 12.0375 12.0306C11.5485 12.3258 11.205 12.8042 11.0066 13.4665C10.8086 14.1287 10.7092 15.076 10.7092 16.3086H14.1979V23.488H7.04248V16.6626C7.04248 13.8434 7.64698 11.7783 8.85598 10.4669C10.0654 9.1555 11.8459 8.5 14.1979 8.5ZM25.0001 8.5V11.5094C24.0487 11.5619 23.3287 11.7291 22.8397 12.0111C22.3507 12.2928 21.9971 12.7716 21.7792 13.447C21.5614 14.122 21.4522 15.076 21.4522 16.3086H25.0001V23.488H17.8054V16.6626C17.8054 13.8434 18.4065 11.7783 19.6087 10.4669C20.8114 9.1555 22.6084 8.5 25.0001 8.5Z" fill="white"/>
</g>
<defs>
<clipPath id="clip0_7519_656">
<rect width="24" height="24" fill="white" transform="translate(4 4)"/>
</clipPath>
</defs>
</svg>
