<svg width="378" height="82" viewBox="0 0 378 82" fill="none" xmlns="http://www.w3.org/2000/svg">
<path d="M117.775 77.473V81.7164H101.585V54.0769H106.727V77.473H117.775Z" fill="white"/>
<path d="M148.015 81.7164H142.854V54.0769H148.015V81.7164Z" fill="white"/>
<path d="M185.953 77.7024C186.908 77.7024 187.711 77.5877 188.361 77.3583C189.011 77.1289 189.527 76.8231 189.909 76.4408C190.304 76.0585 190.585 75.6125 190.75 75.1028C190.929 74.5931 191.018 74.0515 191.018 73.4781C191.018 72.8792 190.922 72.344 190.731 71.8725C190.54 71.3882 190.241 70.9805 189.833 70.6491C189.425 70.3051 188.896 70.0439 188.246 69.8654C187.609 69.687 186.838 69.5978 185.933 69.5978H180.753V77.7024H185.953ZM180.753 58.0527V66.0426H184.844C186.602 66.0426 187.928 65.724 188.82 65.0868C189.724 64.4497 190.177 63.4366 190.177 62.0476C190.177 60.6077 189.769 59.5819 188.954 58.9702C188.138 58.3585 186.864 58.0527 185.131 58.0527H180.753ZM185.131 54.0769C186.94 54.0769 188.488 54.2489 189.775 54.593C191.062 54.9371 192.114 55.4277 192.929 56.0648C193.758 56.702 194.363 57.4729 194.745 58.3777C195.127 59.2824 195.319 60.3018 195.319 61.436C195.319 62.0859 195.223 62.7103 195.032 63.3092C194.841 63.8954 194.541 64.4497 194.134 64.9721C193.739 65.4819 193.229 65.947 192.604 66.3675C191.993 66.788 191.26 67.1448 190.406 67.4379C194.204 68.2917 196.102 70.3433 196.102 73.5928C196.102 74.7651 195.879 75.8483 195.433 76.8422C194.987 77.8362 194.337 78.6963 193.484 79.4227C192.63 80.1363 191.579 80.697 190.33 81.1048C189.081 81.5125 187.654 81.7164 186.048 81.7164H175.612V54.0769H185.131Z" fill="white"/>
<path d="M227.343 58.1674V65.8323H237.015V69.789H227.343V77.6068H239.615V81.7164H222.182V54.0769H239.615V58.1674H227.343Z" fill="white"/>
<path d="M273.933 67.2276C274.901 67.2276 275.742 67.1066 276.456 66.8645C277.182 66.6224 277.775 66.291 278.233 65.8705C278.705 65.4373 279.055 64.9275 279.285 64.3414C279.514 63.7552 279.629 63.1117 279.629 62.4108C279.629 61.0091 279.164 59.9323 278.233 59.1805C277.316 58.4286 275.908 58.0527 274.009 58.0527H270.721V67.2276H273.933ZM287.16 81.7164H282.515C281.636 81.7164 280.999 81.3724 280.603 80.6842L274.793 71.8342C274.576 71.5029 274.334 71.2672 274.066 71.127C273.811 70.9868 273.429 70.9167 272.919 70.9167H270.721V81.7164H265.58V54.0769H274.009C275.882 54.0769 277.488 54.2744 278.826 54.6694C280.177 55.0517 281.279 55.5933 282.133 56.2942C282.999 56.995 283.636 57.8361 284.044 58.8173C284.452 59.7857 284.656 60.8562 284.656 62.0285C284.656 62.9588 284.516 63.838 284.235 64.6663C283.968 65.4946 283.573 66.2464 283.05 66.9218C282.54 67.5972 281.903 68.1897 281.139 68.6995C280.387 69.2092 279.527 69.6106 278.558 69.9037C278.89 70.0948 279.195 70.3242 279.476 70.5918C279.756 70.8467 280.011 71.1525 280.24 71.5093L287.16 81.7164Z" fill="white"/>
<path d="M330.149 58.3012H321.815V81.7164H316.673V58.3012H308.339V54.0769H330.149V58.3012Z" fill="white"/>
<path d="M367.044 71.0123V81.7164H361.921V71.0123L351.848 54.0769H356.378C356.824 54.0769 357.175 54.1852 357.43 54.4018C357.697 54.6185 357.92 54.8924 358.099 55.2238L363.145 64.4561C363.438 65.004 363.693 65.5201 363.909 66.0043C364.139 66.4886 364.343 66.9728 364.521 67.457C364.687 66.9728 364.878 66.4886 365.095 66.0043C365.311 65.5201 365.56 65.004 365.84 64.4561L370.867 55.2238C371.007 54.9434 371.217 54.6822 371.498 54.4401C371.778 54.198 372.135 54.0769 372.568 54.0769H377.117L367.044 71.0123Z" fill="white"/>
<path d="M39.9417 60.5658H81.3433V80.9701H1.00735L15.1102 60.5658H15.2706L56.8866 0.373134H81.3433L39.9417 60.5658Z" fill="white"/>
<path d="M0 0.373134H20.1469V33.7852L0 62.6063V0.373134Z" fill="white"/>
<path d="M141.585 0.488479L123.756 44.6349H116.337L98.5075 0.488479H105.102C105.814 0.488479 106.394 0.661483 106.842 1.00749C107.29 1.3535 107.626 1.80127 107.85 2.35081L118.26 29.2783C118.606 30.1535 118.932 31.1203 119.237 32.1787C119.563 33.2167 119.868 34.3056 120.153 35.4454C120.397 34.3056 120.662 33.2167 120.947 32.1787C121.232 31.1203 121.547 30.1535 121.893 29.2783L132.243 2.35081C132.406 1.88268 132.721 1.45526 133.19 1.06855C133.678 0.681837 134.268 0.488479 134.96 0.488479H141.585Z" fill="white"/>
<path d="M154.398 44.6349H146.155V0.488479H154.398V44.6349Z" fill="white"/>
<path d="M201.498 0.488479V44.6349H197.285C196.634 44.6349 196.084 44.5332 195.636 44.3296C195.209 44.1057 194.792 43.7394 194.385 43.2305L171.335 13.7996C171.457 15.1429 171.518 16.3845 171.518 17.5242V44.6349H164.282V0.488479H168.587C168.933 0.488479 169.228 0.508832 169.472 0.549538C169.737 0.569893 169.961 0.630953 170.144 0.73272C170.347 0.814135 170.541 0.946432 170.724 1.12961C170.907 1.29244 171.111 1.51632 171.335 1.80127L194.476 31.3544C194.415 30.642 194.364 29.9398 194.324 29.2478C194.283 28.5558 194.263 27.9146 194.263 27.3244V0.488479H201.498Z" fill="white"/>
<path d="M248.545 0.488479V44.6349H240.302V25.3399H219.572V44.6349H211.329V0.488479H219.572V19.4782H240.302V0.488479H248.545Z" fill="white"/>
<path d="M297.967 44.6349H291.616C290.904 44.6349 290.324 44.462 289.876 44.116C289.429 43.7497 289.093 43.3017 288.869 42.7725L285.571 33.7663H270.208L272.141 27.9656H283.465L278.092 13.2807C277.827 12.6294 277.552 11.8558 277.267 10.9603C276.982 10.0647 276.697 9.09777 276.412 8.05975C276.148 9.09777 275.873 10.075 275.588 10.9909C275.303 11.8864 275.029 12.6699 274.764 13.3416L269.421 27.9656L267.284 33.7663L263.987 42.7725C263.824 43.2407 263.508 43.6681 263.04 44.0548C262.572 44.4415 261.992 44.6349 261.3 44.6349H254.889L272.26 0.488478H280.626L297.967 44.6349Z" fill="white"/>
<path d="M341.526 0.488478V44.6349H337.313C336.662 44.6349 336.112 44.5332 335.664 44.3296C335.237 44.1057 334.82 43.7394 334.413 43.2305L311.363 13.7996C311.485 15.1429 311.546 16.3845 311.546 17.5242V44.6349H304.31V0.488478H308.615C308.961 0.488478 309.256 0.508831 309.5 0.549537C309.765 0.569892 309.989 0.630952 310.172 0.732719C310.375 0.814134 310.569 0.946431 310.752 1.12961C310.935 1.29244 311.139 1.51632 311.363 1.80127L334.504 31.3544C334.443 30.642 334.392 29.9398 334.352 29.2478C334.311 28.5558 334.291 27.9146 334.291 27.3244V0.488478H341.526Z" fill="white"/>
<path d="M374.866 8.51788C374.621 8.9453 374.357 9.26078 374.072 9.46431C373.807 9.64749 373.471 9.73908 373.064 9.73908C372.637 9.73908 372.169 9.58643 371.66 9.28113C371.171 8.95548 370.581 8.5993 369.889 8.21258C369.197 7.82587 368.383 7.47986 367.447 7.17456C366.531 6.84891 365.442 6.68608 364.18 6.68608C363.04 6.68608 362.043 6.82855 361.188 7.1135C360.333 7.37809 359.611 7.75463 359.02 8.24311C358.451 8.73159 358.023 9.32184 357.738 10.0139C357.453 10.6855 357.311 11.4284 357.311 12.2425C357.311 13.2806 357.596 14.1456 358.166 14.8376C358.756 15.5296 359.529 16.1199 360.486 16.6083C361.442 17.0968 362.531 17.5344 363.753 17.9211C364.974 18.3078 366.225 18.7251 367.508 19.1729C368.79 19.6003 370.042 20.1091 371.263 20.6994C372.484 21.2693 373.573 22.002 374.53 22.8975C375.486 23.7727 376.25 24.8515 376.819 26.1337C377.41 27.416 377.705 28.973 377.705 30.8048C377.705 32.7994 377.359 34.672 376.667 36.4223C375.995 38.1524 374.998 39.6687 373.675 40.9713C372.372 42.2536 370.774 43.2713 368.882 44.0243C366.989 44.757 364.821 45.1234 362.379 45.1234C360.974 45.1234 359.59 44.9809 358.227 44.696C356.863 44.4314 355.55 44.0447 354.288 43.5358C353.047 43.027 351.876 42.4164 350.777 41.704C349.678 40.9917 348.701 40.1979 347.846 39.3227L350.258 35.3843C350.462 35.0994 350.726 34.8653 351.052 34.6821C351.378 34.4786 351.724 34.3768 352.09 34.3768C352.599 34.3768 353.148 34.5905 353.739 35.018C354.329 35.425 355.031 35.883 355.845 36.3918C356.659 36.9006 357.606 37.3688 358.685 37.7962C359.784 38.2033 361.096 38.4068 362.623 38.4068C364.964 38.4068 366.775 37.8573 368.057 36.7582C369.34 35.6387 369.981 34.041 369.981 31.965C369.981 30.8048 369.686 29.8584 369.095 29.1257C368.525 28.3929 367.762 27.7823 366.806 27.2939C365.849 26.785 364.76 26.3576 363.539 26.0116C362.318 25.6656 361.076 25.2891 359.814 24.882C358.552 24.4749 357.311 23.9864 356.09 23.4165C354.868 22.8466 353.779 22.1038 352.823 21.1879C351.866 20.272 351.093 19.1322 350.503 17.7685C349.933 16.3845 349.648 14.685 349.648 12.67C349.648 11.0621 349.963 9.49484 350.594 7.96834C351.245 6.44184 352.182 5.08834 353.403 3.90784C354.624 2.72735 356.13 1.78092 357.921 1.06855C359.712 0.356184 361.768 0 364.088 0C366.694 0 369.095 0.407067 371.293 1.2212C373.492 2.03533 375.364 3.17512 376.911 4.64057L374.866 8.51788Z" fill="white"/>
</svg>
